# xmcd
#
# Track frame offsets:
# 150
# 15845
# 28996
# 44425
# 57917
# 70596
# 84476
# 97692
# 110672
# 125010
# 137676
# 151780
# 165836
# 180687
# 194688
# 207699
#
# Disc length: 2963 seconds
#
# Revision: 1
# Processed by: cddbd v1.5.1PL2 Copyright (c) Steve Scherf et al.
# Submitted via: Easy CD Ripper v2.37
#
DISCID=d30b9110
DTITLE=Charlie Poole and the North Carolina Ramblers - Old Time Songs 1925-1930
DYEAR=1994
DGENRE=Country
TTITLE0=White House Blues
TTITLE1=Sweet Sunny South
TTITLE2=Shootin' Creek
TTITLE3=He Rambled
TTITLE4=The Letter That Never Came
TTITLE5=Mountain Reel
TTITLE6=You Ain't Talkin' To Me
TTITLE7=Sweet Sixteen
TTITLE8=Leaving Home
TTITLE9=Took My Gal a Walkin'
TTITLE10=Monkey On a String
TTITLE11=Ramblin' Blues
TTITLE12=Flying Clouds
TTITLE13=Falling By the Wayside
TTITLE14=Don't Let Your Deal Go Down Blues
TTITLE15=Take a Drink on Me
EXTD=
EXTT0=
EXTT1=
EXTT2=
EXTT3=
EXTT4=
EXTT5=
EXTT6=
EXTT7=
EXTT8=
EXTT9=
EXTT10=
EXTT11=
EXTT12=
EXTT13=
EXTT14=
EXTT15=
PLAYORDER=
